<?xml version="1.0" encoding="utf-8"?>
<!-- Generator: Adobe Illustrator 15.0.0, SVG Export Plug-In  -->
<!DOCTYPE svg PUBLIC "-//W3C//DTD SVG 1.1//EN" "http://www.w3.org/Graphics/SVG/1.1/DTD/svg11.dtd" [
	<!ENTITY ns_flows "http://ns.adobe.com/Flows/1.0/">
]>
<svg version="1.1"
	 xmlns="http://www.w3.org/2000/svg" xmlns:xlink="http://www.w3.org/1999/xlink" xmlns:a="http://ns.adobe.com/AdobeSVGViewerExtensions/3.0/"
	 x="0px" y="0px" width="400px" height="600px" viewBox="0.919 0.25 400 600" enable-background="new 0.919 0.25 400 600"
	 xml:space="preserve">
<defs>
</defs>
<g id="XMLID_1_">
	<g>
		<path fill="#00ADEE" d="M401.2,589.43c0,3.61,0,7.21,0,10.82c-7.84,0-15.721,0-23.65,0c11.44-0.5,20.561-2.95,22.82-10.82
			C400.65,589.43,400.919,589.43,401.2,589.43z"/>
		<path fill="#222222" d="M321.059,519.04c0.101-0.07,0.19-0.19,0.25-0.34C321.219,518.81,321.129,518.93,321.059,519.04z
			 M309.669,489.59c0,0.15-3.33-1.68-3.34-1.68c-5.22-3.88-3.28,0.76-10.811,0.83c-0.229,5.05,1.24,11.79-3.329,12.479
			c-2.061,9.9,2.93,16.62,5.819,25.8c0.33,1.99-3.79-0.46-2.49,2.49c0.28,3.8,2.511,0.48,4.16,2.5c0.601,2.271-1.66,1.681-1.67,3.33
			c6.45,1.32,5.69,9.851,5.83,17.48c4.29,0.239,4.88,3.399,4.99,5.819c7.08,0.42,4.96-8.35,14.149-5.819
			c-0.71-1.95,2.91-3.59,0.83-4.16c-2.42,1.859-4.75,1.35-8.319,3.32c0-1.381,0-2.771,0-4.16c1.66,0,3.33,0,4.989,0
			c-0.159-5.15,2.561-7.431,4.16-10.82c-0.04-3.28-3.96-2.7-4.989-4.99c5.35-4.29-1.431-8.8,1.399-12.97
			c-1.689,1.17-7.95-8.31-8.06-8.67C311.11,504.4,313.229,494.46,309.669,489.59z M401.2,527.02c0,20.801,0,41.61,0,62.41
			c-0.28,0-0.55,0-0.83,0c-2.26,7.87-11.38,10.32-22.82,10.82c-3.83,0-7.66,0-11.51,0c-8.01-0.24-16.39-0.83-23.92-0.83
			c-90.44,0-188.39,0-282.94,0c-5.83,0-12.25,0.45-18.67,0.83c-7.39,0-14.76,0-22.11,0c-0.56,0-1.12,0.01-1.7,0.04
			c-1.74-0.21-3.4-0.49-4.96-0.87c-5.65-1.36-5.82-4.59-10.82-9.16c0-62.41,0-124.819,0-187.24c1.38-1.43,1.38-8.55,0-9.979
			c0-2.5,0-5,0-7.49c0.28,0,0.56,0,0.84,0c1.53-1.52,0.44-4.67-0.84-5.83c0-31.06,0-62.13,0-93.2c7.5-0.83,15.17,2.58,21.64,0
			c-2.29-0.76-5.84-0.26-7.49-1.67c2.8-0.52,7.73,1.08,9.16-0.83c-5.24-3.36-16.99-0.21-23.31-2.49c0-0.28,0-0.56,0-0.84
			c8.89-0.55,19.97,1.11,27.47-0.83c-3.59-0.05-8.47-3.15-7.49-4.99c10.14-0.08,15.58,12.83,9.98,20.8
			c11.55-0.67,23.48,2.53,34.12,0c2.26-2.46,1.4-8.03,2.5-11.65c11.67-6.08,20.07-15.43,21.64-31.62c7.98-2,13.79-6.18,14.14-15.81
			c8.45-5.7,19.76-8.54,34.12-8.32c1.79-4.04,1.67-9.98,4.16-13.32c10.07-3.96,19.45,1.97,29.96,2.5c5.18-9.8-7.83-11.6-6.66-22.47
			c-10.69-4.02-7.49-15.17-7.49-24.97c0-4.34-2.59-8.64-2.49-13.31c0.34-15.96,10.26-27.98,19.97-34.95
			c0.56,4.99,4.73,6.36,7.49,9.15c8.4-0.45,13.29-6.94,21.64-4.99c3.681,0.86,5.721,6.39,11.65,9.99
			c6.72,4.08,16.07,3.38,14.98,12.48c-7.551-3.55-16.4,5.81-14.98,8.32c5.13-1.24,10.311-2.44,16.64-2.5
			c2.971,2.87,9.221,6.86,8.32,10.82c-4.92-1.18-7.01-5.19-10.82-7.49c-4.35,1.47-10.84,0.8-11.649,5.83
			c0.12,2.38,5.72-0.72,5.83,1.66c-4.42,2.9-13.54,7.26-18.311,2.5c4.721-7.53,3.42-16.38,4.99-27.46
			c-4.57-0.42-10.9,0.91-14.14-0.84c-1.021,3.81,5.12,2.96,2.489,5.83c-6.63,2.24-14.12,3.63-17.47,9.15
			c12.3-3.48,18.67,9.79,19.97,22.47c4.83,2.24,5.11-1.84,9.15-2.49c10.29,3.03,19.99,6.64,32.46,7.48
			c1.271,4.09,4.09,4.23,3.33,8.33c-1.53,8.23-11.38,0-15.81,5.82c3.34,5.72,10.199,0.12,13.31,4.16c1.43-3.84,0.99-9.55,7.49-8.32
			c-0.83,3.89-2.061,7.37-1.66,12.48c17.17,3.25,40.66,0.35,46.6,16.65c4.011-0.43,4.761-4.11,9.15-4.16
			c9.27,5.99,25.13,5.38,32.46,13.31c8.47,19.27,21.39,34.08,29.12,54.09c3.92,2.74,8.16,5.17,9.99,9.99
			c6.569-1.75,16.22-0.42,24.13-0.83c0,3.88,0,7.76,0,11.65c-2.8,0.52-7.73-1.08-9.15,0.83c1.78,1.54,6.09,0.56,9.15,0.83
			c0,19.7,0,39.39,0,59.09c-16.53-2.061-33.601-3.57-47.431-8.33c3.95-3.92,0.4-11.85-4.159-12.48
			c-4.42,0.771-5.221,8.94-3.33,13.32c-4.53,4.48-10.641,9.311-17.48,14.141c-6.87,4.859-15.939,13.279-21.63,12.489
			c-0.28,1.94-0.86,3.58-2.5,4.16c-2.68-3.43-8.55-3.66-12.479-5.83c-1.521,1.811-2.471,4.2-5,4.99
			c-12.841-9.93-34.69-0.54-54.921,0.84c-15.46,1.05-33.14-1.24-42.439,1.66c3.52,2.03-1.3,2.4,1.66,4.99
			c-8.28,4.59-15.9-2.67-25.79-1.66c-2.11,1.22-2.14,4.52-5,4.99c-1.47-2.96-0.36-8.511-3.33-9.98
			c-14.81,4.32-29.94,8.34-38.28,19.14c-6.09-0.27-7.33,4.311-12.48,4.99c-0.27-1.95-1-3.439-1.66-4.99
			c8.24-2.859,14.17-8.02,21.63-11.649c0.59-3.09-1.42-3.58-0.83-6.66c-11.5,1.65-15.08,6.08-24.13,9.99
			c-0.77,4.09,2.42,7.25-0.83,9.149c-3.35-1.1-5.16-3.72-8.33-4.989c-10.8,8.85-26.94,2.46-43.27,4.989
			c-0.7,4.57-3.16,7.381-4.99,10.82c3.91,2.74,12.52,0.79,15.81,4.16c-3.2,2.4-3.18,1.71-0.83,4.99
			c-5.55,0.279-11.05,0.6-12.49,4.989c0.08,2.58,3.25-2.569,3.33,0c-1.23,2.931-4.72,3.601-6.65,5.83c3.38,1,7.38,0.12,9.15,0.83
			c-1.7,3.641-8.25,0.71-11.65,0.83c-2.19,0.24-1.76,4.91-4.16,2.5c0.77,2,1.52,4.03,2.5,5.83c0-1.67,0-3.33,0-5
			c2.29,2.28,0.78-1.22,2.49-1.66c3.57,0.03,3.54,3.67,6.66,4.16c5.15-0.12,5.43-5.11,11.65-4.16c-1.14,3.221,0.36,3.28-0.83,5.82
			c-4.17-3.65-4.13,5.78-7.49,0.84c-2.01,1.93,1.3,2.22,1.66,4.16c-2.96-0.63-3.23,5.53-8.32,2.49c0.04,2.819-1.94,3.609-3.33,5
			c2.12,0.91,4.28-2.851,4.16,0.83c4.05-0.67,3.81-5.63,9.99-4.16c1.14-1.9-2.15-3.13,0-3.33c1.92-0.26,0.92,2.399,2.5,2.5
			c8.43-4.601,16.17-9.9,24.13-14.98c-1.23-0.159-0.76-2.01-0.83-3.33c-6.69,0.46-8.15-0.88-14.15,1.66
			c0.44-3.16,2.43-4.779,3.33-7.489c-0.98-0.131-2.36,0.149-2.5-0.83c1.47-0.75,2.58-1.86,3.33-3.33
			c-5.1-0.17-7.36-3.181-10.82-4.99c5.61-1.98,6.61,5.01,9.99,2.5c-0.79-1.71-4.29-0.71-4.16-3.33c24.46-2.64,58.86-1.6,86.54-0.84
			c11.66,0.32,22.85-2.641,29.13,3.33c-7.24,2.46-2.1,13.939-1.66,15.81c-0.11-1.49,0.82-1.939,2.49-1.66
			c1.55,3.721,7.21,3.33,5.83,9.99c-4.24-0.08-4.01,4.311-5.83,6.65c5.98-0.12,12.7,0.5,17.48-0.83c1.029-2.57,0.68-6.53,4.159-6.66
			c0.631-12.4,9.66-16.41,14.15-24.96c23.19-2.88,51.72-0.42,75.72-2.5c-0.609-1.33-4.069,0.189-3.33-2.5
			c21.07,5.36,37.561,1.189,61.591,4.17c-0.23,5.23,7.88,9.67,1.659,13.31c0.98,0.131,2.36-0.14,2.5,0.83
			c-2.77,5.28-3.39,12.7-4.159,19.98c-5.4,1.82-6.521,7.899-8.33,13.31c-2.7,0.48-3.87-0.569-5.82-0.83
			c-2.76,5.28-3.78,12.311-4.16,19.971c2.311,3.239,6.16,4.93,4.99,11.649c-3.59,0.61-10.03,2.311-11.65,0
			c1.62,7.57,1.521,11.761,5.83,16.641c0.4-0.98,0.88-1.88,1.66-2.49c-0.6,2.54,0.85,3.03,0.83,4.99
			c-1.57,0.189-1.83-0.94-3.33-0.83c0,1.939,0,3.88,0,5.819c3.43-0.819,3.98,3.42,2.5,5c4.94,1.021,9.36-1.869,12.48,0
			c-2.471-2.52-4.311-2.75-0.83-5.83c-1.21-0.449-4.301,0.971-4.16-0.829c0.109-1.551,0.55-2.78,1.66-3.33
			c1.79,2.1,4.96,2.81,4.17,7.489c4.3-1.25,3.199,2.9,4.16,4.99c2.35,0.15,5.699-0.71,5.819,1.67
			c-0.319,7.26,4.811,9.05,4.99,15.811c2.59-0.09,2.38,2.62,5.83,1.66c-1.89,3.869,4.939,5.38,4.99,9.989
			c3.54-0.069,5.25-1.97,5-5.83c-1.551-0.79-2.79,2.5-3.33,0c-0.221-2.43,1.88-2.55,1.66-4.989c-2.08,0.1-2.601,1.59-3.33-0.83
			c-1.46-21.931-7.98-25.19-9.15-45.771c3.29,1.07,1.7-2.74,4.99-1.67c0.319,3.65-2.38,4.28-2.49,7.49
			c4.72,1.399,1.86-4.78,5.82-4.16c0,1.67,0,3.33,0,5c2.13,1.79,4.72-0.77,5.83,0.83c-0.011,1.1-1.46,0.76-1.67,1.66
			c2.439-0.21,2.56,1.88,4.989,1.67c0.521-2.26-3.76-3.9-1.66-5c6.211,0.95,9.771-0.771,11.65-4.16c-0.88,5.16,0.45,3.79,0.83,8.33
			c3.22,0.44,4.07-1.49,7.49-0.84c0,3.05,0,6.109,0,9.16c-1.11,0-2.221,0-3.33,0C397.879,525.35,399.37,526.35,401.2,527.02z
			 M377.07,305.66c1.229,3.35,10.899,1.75,12.479,0C387.04,304.84,377.049,303.55,377.07,305.66z M377.9,351.43
			c7.609-4.75,5.859-22.22,1.67-28.3c-10.75-15.54-35.57-4.95-55.761-3.32c-4.46,0.36-8.68-0.439-12.479,0
			c-9.15,1.051-18.91,6.521-29.13,7.49c-13.2,1.24-23.76,6.44-34.12,4.99c-13.15-1.85-15.05-12.98-27.46-14.98
			c-1.25-2.35-3.67-3.55-4.16-6.659c-4.8-0.471-6.91-3.641-12.48-3.33c-0.829-20.061-34.2-11.33-30.79,6.66
			c-4.22,2.649-15.8,5.779-8.33,12.479c4.13-0.31,3.57-5.31,6.66-6.65c7.47,10.841,34.33,2.29,44.11,10.811
			c-14.2,4.39-29.24,7.939-43.28,12.49c-1.51-12.12-19.22-15.15-24.96-25.801c0.93-3.21,2.01-11.369-0.83-13.31
			c-0.35,4.92,1.05,11.59-1.67,14.14c-14.92-2.6-21.56,9.98-32.45,14.15c-17.56-8.17-60.04-26.47-69.07,1.66
			c7.13,0.64,7.61,7.92,16.64,6.66c2.81,7.159,8.83,3.04,14.98,4.159c9.46,1.73,16.16,15.311,24.96,9.16
			c2.18-3.09,2.25-8.3,7.49-8.33c0.66,3.431-1.27,4.271-0.83,7.49c1.95,2.22,5.19,3.13,5.83,6.66c2.62,0.41,2.94-1.5,5.82-0.83
			c3.25,9.23,13.78,11.19,18.31,19.14c5.07-0.079,9.23,0.75,11.65,3.33c3.03-3.26,6.47-3.84,9.99-0.84
			c-0.63-4.08-4.57-4.859-5-9.149c-7.58-2.74-13.9-7.91-19.97-12.48c-6.5-4.89-13.45-8.18-19.97-13.32
			c0.73-2.319,3.34-2.76,5.82-3.319c7.12,2.91,9.6,13.81,19.98,10.81c-0.03,6.41,5.97,6.79,10.81,8.33c1.66-1.13-0.26-5.81,2.5-5.83
			c2.11,1.771,2.56,5.21,5.83,5.83c1.78-1.83,2.28-4.93,4.16-6.66c16.36,8.44,41.66-4.68,59.91-4.16
			c-19.681,4.44-38.28,14.19-59.91,19.141c-0.9,4.779,1.41,6.35,3.33,8.319c3.96,0.08,3.94-3.819,7.49-4.159
			c0.68,2.08,2.91,2.63,4.16,4.159c4.27-3.79,9.03-2.39,14.14-2.5c13.46-0.27,27.06-9.39,39.95-7.489
			c-5.73,3.699-16.33,2.529-18.311,9.989c5.67-0.68,6.9,3.091,10.82,4.16c5.529-1.41,8.95-4.91,13.31-7.489
			c0.05,2.539-2.99,2-2.49,4.989c12.57-1.88,32.561-3.47,48.261-4.989c2.77-10.54,11.449-15.181,19.97-19.971
			c0.97,7.63-6.5,11.23-5.82,15.811c3.3-1.42,6.04-3.391,4.99-9.15c2.62,0.39,3.26-1.189,5-1.67c0-1.94,0-3.88,0-5.82
			c0.79-2.569,10.271-0.79,9.15-2.5c-2.21-0.01-4.9,0.46-4.99-1.67c5.13-3.399,12.229,0.271,17.47,1.67
			c0.63-4.699,9.65-0.06,14.15-2.5c2.55-5.489,5.91-10.17,10.819-13.31c0.24,1.689,2.25,1.63,2.49,3.33
			c-0.56,1.649-4.95-0.521-4.16,2.49c-0.13,3.189,3.4,2.71,5,4.159c0.891-3.1-2.069-2.369-1.67-4.989
			c1.55-0.11,2.78-0.551,3.33-1.66c-2.54-2.29-1.91-9.15,1.67-9.99c0.351,1.04-0.189,5.71,2.49,6.66c0.37-1.58-1.13-5.021,1.67-4.16
			c2.07,0.98,1.98,4.12,3.33,5.82c3.021-1.431,5.81-3.771,6.65,0.83c-0.601,1.899-5.761-0.761-4.99,2.5
			c0.72,3.199,1.939,2.01,4.99,1.67C375.589,345.42,378.2,346.97,377.9,351.43z M369.58,349.76c4.47-0.01,1.18-7.12-1.66-4.16
			C367.29,348.17,370.78,346.62,369.58,349.76z M358.759,333.12c-0.16,2.38-0.1,4.54,2.5,4.16
			C361.16,335.16,361.099,333,358.759,333.12z M325.469,353.93c1.51,0.23,6.01,4.21,5.83,0.83
			C330.959,353.35,326.419,351.98,325.469,353.93z M317.979,349.76c-0.329,2.34,3.551,4.7,4.171,3.33
			C319.799,352.94,321.11,349.14,317.979,349.76z M315.49,556.14c-0.66,3.21,3.979,3.21,3.33,0
			C317.709,556.14,316.599,556.14,315.49,556.14z M317.979,591.93c1.04-2.39-0.529-7.09-1.659-1.67
			c0.13-2.069-1.311-2.569-1.66-4.16c2.859-0.189,3.62-2.47,4.16-4.989c-1.46-4.091-7.971-3.13-9.99-6.66
			c1.07-1.141,3.62-0.82,5.83-0.83c-0.24,2.17-0.28,4.17,2.49,3.33c-0.7-8.7-0.4-12.34-9.98-9.99c1.88,5.56,1.61,10.24,1.66,14.58
			c-0.03,0.13-0.04,0.27,0,0.4c0-0.131,0-0.271,0-0.4c0.3-1.19,3.12-2.2,3.33-0.43c-0.561,1.93-2.771,2.229-3.33,4.159
			c4.54-0.369,3.39,4.931,5.83,6.66C314.86,589.78,316.089,593.07,317.979,591.93z M314.66,562.8c-2.46-0.72,1.93-1.24,0.83-3.33
			c-1.91,0.53-5.021,1.65-6.66,0c1.08,2.07-2.44,3.46,0,4.16C309.65,560.79,313.629,565.86,314.66,562.8z M287.19,507.88
			c-3.681-0.91-2.29-7.09-7.49-8.32c0.24,2.171-0.3,3.58-2.49,3.32c-0.14-1.24,0.29-3.07-0.83-3.32c-0.87,3.421-2.27,4.96,0,7.49
			c-1.31,0.08-2.89-0.12-2.5,1.66c1.24,0.14,3.07-0.3,3.33,0.83c-1.82-0.15-2.65,0.68-2.5,2.5c1.26,2.62,5,2.77,7.49,4.16
			C283.66,513.22,285.089,510.21,287.19,507.88z M268.889,548.66c-0.609-2.55,1.431-2.45,0.83-5c-1.47-0.48-4.89,1.01-5-0.83
			c5.13-1.53,0.36-6.561-3.319-6.66c-1.03,2.7,2.689,0.64,1.659,3.33c-1.93-0.26-3.189,0.13-4.159,0.83c0.76,1.46,0.29,4.16,1.659,5
			c2.12-1.021,4.44-0.17,5,2.49c-1.899,1.149-3.13-2.141-3.33,0c1.66,1.33,2.45,6.279,0.83,8.319c4.271,0.12,1.69-4.12,1.66-6.649
			C266.729,549.83,266.53,547.97,268.889,548.66z M265.559,509.54c-0.25,3.06,3.311,6.62,4.99,5
			C267.599,514.16,268.36,510.06,265.559,509.54z M268.889,509.54c1.24-1.23,0.07-4.3-2.5-4.16c0.79,3.01-3.279,1.16-4.989,1.67
			c-2.48,4.561,0.85,7.891,3.319,9.98c1.01-4.061-1.87-4.221-2.49-6.66C263.959,509.09,267.379,506.24,268.889,509.54z
			 M200.65,381.39c2.189,5.051,13.29,0.99,9.979-4.159C208.28,376.29,200.919,377.47,200.65,381.39z M210.629,294.01
			c0.05-3.1-0.84-5.26-1.66-7.49c-10.279-1.65-20.81-3.05-33.29-2.5c-3.41-19.05-4.16-40.77-9.98-57.42
			c-0.86,22.21,5.61,37.11,6.65,57.42c-10.01,2.47-26.93-1.97-30.79,6.66c2.63,0.41,2.94-1.5,5.83-0.83
			c-2.94,3.93,2.95,4.19,4.16,1.66c-1.9,0.23-3.13-0.2-3.33-1.66c6.05-0.38,13.65-2.03,18.31,0.83c-1.21,0.46-4.3-0.97-4.16,0.83
			C176.759,294.04,197.57,290.15,210.629,294.01z M178.18,456.28c-1.43,0.05-2.13-0.641-2.5-1.66c0.74-0.25,4.23-1.67,1.67-2.5
			c-0.61,1.89-2.51,2.49-4.16,3.33c-0.08,3.68-0.17,7.37,3.32,7.49C175.81,459.46,178.129,459.01,178.18,456.28z M150.719,521.19
			c4.07,0.88,3.97-4.86,1.66-5.82c-0.71,1.229-2.09,1.79-4.16,1.66c-0.26-4.101-1.5-6.63-4.99-4.99c1.46,0.2,1.89,1.43,1.66,3.33
			c-1.57-0.19-1.83,0.939-3.33,0.83c-1.39-1.38-0.66-4.891-0.83-7.49c-1.8-0.63-4.65-2.02-2.5-4.16c-3.1-0.88-1.31,3.12-4.16,2.5
			c0.61-2.27-1.65-1.68-1.66-3.33c3.09,0.32,2.17-3.37,5.82-2.5c0.26-4.18-0.24-9.12,4.17-9.149c1.79-6.351-4.07-9.721-0.84-12.49
			c-2.05,0.11-4.01,0.13-4.99-0.83c-0.2,3.13-3.41,3.25-5.83,4.16c-0.31,5.229-2.74,8.35-6.65,9.99c0.77,0.89,3.07,0.26,2.49,2.5
			c-1.38,0-2.77,0-4.16,0c-0.34,2,1.52,1.8,0.83,4.159c-3.26,1.171-5.71,3.16-6.65,6.65c1.43,0.33,2.13-1.229,2.49,0
			c-0.31,3.57-6.21,1.56-6.65,5c0.35,1.85,4.41,0.65,4.99,0c0.91,1.83,3.81,8.33-0.83,8.32c-1.12-1.931,0.11-6.221-3.33-5.83
			c-0.14,1.25,0.3,3.069-0.83,3.33c-1.31,0.08-2.89-0.11-2.5,1.67c2.97,0.08,5.71,0.38,6.66,2.49c-10.57-0.521-2.27,0.119,0,4.159
			c-2.55-0.6-2.45,1.44-5,0.841c0.83,6.09-4.68,5.85-5.82,9.979c2-0.34,1.81,1.521,4.16,0.83c0.61-2.27-1.65-1.67-1.66-3.32
			c3.67,0.34,3.66-2.989,6.65-3.33c0,1.381,0,2.771,0,4.16c-1.57-0.189-1.83,0.94-3.33,0.83c0.77,3.38,1.8,4.021,0.84,7.49
			c1.11,0,2.22,0,3.33,0c1.02-2.69-2.7-0.64-1.67-3.33c3.45,0.96,3.24-1.75,5.83-1.66c1.75,0.74,2.46,2.53,4.99,2.49
			c0.63-3.13-4.42-0.57-3.33-4.16c4.25,2.91,0.75-4.08,4.99-3.33c-0.03,1.15,0.4,1.83,0.84,2.5c-4.9,2.58,7.48,9.84,7.49,4.99
			c-2.63-0.14-4.97-0.58-5-3.33c4.38-1.25,8.08-4.46,12.49-3.32c-1.74-3.16,5.74-4.22,6.65-7.489c0.41,0.979,0.89,1.88,1.67,2.489
			c-0.62-2.56,2.28-1.6,1.66-4.16C149.879,525.36,150.91,522.67,150.719,521.19z M151.549,512.04c-0.06-1.95,0.67-8.91-1.67-5.83
			c2.21,4.53-2.53,1.36-4.16,2.5C147.419,510.06,149.129,511.41,151.549,512.04z M145.719,437.14c4.49,0.601,4.38-3.39,4.16-7.489
			c-1.14,0.04-1.82-0.391-2.49-0.83C147.569,432.34,146.109,434.2,145.719,437.14z M119.089,542.83c-0.63,3.9,5.32,2.08,5-0.83
			C122.129,541.98,121.64,543.43,119.089,542.83z M102.45,369.74c8.27,2.819,13.01,9.17,20.8,12.479
			C118.87,376.56,111.669,365.03,102.45,369.74z M109.109,510.37c0.24,2.26-1.17,6.17,2.49,5
			C111.229,513.24,110.439,511.54,109.109,510.37z M90.799,481.25c3.76,1.84,6.12-3.74,4.16-6.66
			C94.95,478.18,90.819,477.66,90.799,481.25z M88.299,457.12c-5.34-0.311-7.82,2.67-12.48,0.83c1,4.21-1.79,7.59-4.99,4.99
			c-0.77,5.479-8.82,11.14-13.32,7.489c-0.68,2.351,1.18,2.16,0.84,4.16c-5.33,1.08-3.51,5.19-5,6.66c-1.3-0.36-0.71-2.62-3.33-1.67
			c-1.94,2.47-4.66,5.43-1.66,8.33c-1.57,0.18-1.84-0.94-3.33-0.84c-0.66,2.39-1.68,4.42-2.5,6.66c4.24-3.62,9.83-10.011,16.65-8.32
			c-1.07-3.59,3-3.28,6.65-4.16c-1.33-8.27,10.61-3.27,9.16-11.65c5.37-0.18,6.76-4.33,11.65-4.989
			C85.89,460.81,88.02,459.89,88.299,457.12z M27.549,409.68c0-1.39,0-2.77,0-4.16c-1.1-2.039-3.09,0.921-3.32-0.829
			c0-2.221,0-4.44,0-6.66c-1.07-0.04-1.16-1.07-2.5-0.83c-1.8,3.22-2.45,10.05-0.83,14.149C24.029,410.35,24.6,404.09,27.549,409.68
			z M25.89,421.33c3.25,0.92,3.34-4.96,0.83-4.99C25.89,418.37,26.45,418.11,25.89,421.33z M27.549,370.57
			c-3.6,1.06-5.76-3.61-7.49-1.67c1.59,2.859,0.13,8.75,4.17,9.159C22.89,371.69,25.89,372.35,27.549,370.57z M14.239,407.18
			c4.46-1.1,5.31-10.199,4.16-14.14c-3.22,2.14-5.65,0.89-9.99,0.83c0.84,5.28-4.68,4.189-4.99,8.32
			c3.95-0.061,1.88,5.89,5.83,5.829c1.43-2.17-0.16-7.369,4.99-5.829C13.819,404.81,16.049,405.45,14.239,407.18z M14.239,377.23
			c2.65,0.72,5.24-5.66,1.66-5.83C14.209,372.2,14.109,374.6,14.239,377.23z M17.569,379.72c-0.36,1.86-4.1,0.34-5.83,0.83
			c-1.15-0.51-0.12-3.2-1.66-3.319c-1.16,2.5-4.31-1.73-5.83,0.829C7.339,382.45,16.759,385.56,17.569,379.72z M15.069,323.97
			c2.85,0.84,1.98-6.25,0.83-6.66C16.089,319.99,14.43,320.83,15.069,323.97z M5.919,297.34c-0.01,2.82,6.59,3.34,8.32,1.66
			C10.14,297.95,10.819,297.29,5.919,297.34z M5.919,373.9c1.27,1.279,5.7,1.479,4.99-1.67C8.52,372.06,6.68,372.44,5.919,373.9z"/>
		<path fill="#00ADEE" d="M401.2,522.86c0,1.38,0,2.77,0,4.159c-1.83-0.67-3.32-1.67-3.33-4.159
			C398.979,522.86,400.089,522.86,401.2,522.86z"/>
		<path fill="#00ADEE" d="M401.2,510.37c0,1.11,0,2.22,0,3.33c-3.42-0.65-4.271,1.28-7.49,0.84c-0.38-4.54-1.71-3.17-0.83-8.33
			c-1.88,3.39-5.439,5.11-11.65,4.16c-2.1,1.1,2.181,2.74,1.66,5c-2.43,0.21-2.55-1.88-4.989-1.67c0.21-0.9,1.659-0.561,1.67-1.66
			c-1.11-1.6-3.7,0.96-5.83-0.83c0-1.67,0-3.33,0-5c-3.96-0.62-1.101,5.56-5.82,4.16c0.11-3.21,2.81-3.84,2.49-7.49
			c-3.29-1.07-1.7,2.74-4.99,1.67c1.17,20.58,7.69,23.84,9.15,45.771c0.729,2.42,1.25,0.93,3.33,0.83
			c0.22,2.439-1.881,2.56-1.66,4.989c0.54,2.5,1.779-0.79,3.33,0c0.25,3.86-1.46,5.761-5,5.83c-0.051-4.609-6.88-6.12-4.99-9.989
			c-3.45,0.96-3.24-1.75-5.83-1.66c-0.18-6.761-5.31-8.551-4.99-15.811c-0.12-2.38-3.47-1.52-5.819-1.67
			c-0.961-2.09,0.14-6.24-4.16-4.99c0.79-4.68-2.38-5.39-4.17-7.489c-1.11,0.55-1.551,1.779-1.66,3.33
			c-0.141,1.8,2.95,0.38,4.16,0.829c-3.48,3.08-1.641,3.311,0.83,5.83c-3.12-1.869-7.54,1.021-12.48,0c1.48-1.58,0.93-5.819-2.5-5
			c0-1.939,0-3.88,0-5.819c1.5-0.11,1.76,1.02,3.33,0.83c0.02-1.96-1.43-2.45-0.83-4.99c-0.78,0.61-1.26,1.51-1.66,2.49
			c-4.31-4.88-4.21-9.07-5.83-16.641c1.62,2.311,8.061,0.61,11.65,0c1.17-6.72-2.68-8.41-4.99-11.649
			c0.38-7.66,1.4-14.69,4.16-19.971c1.95,0.261,3.12,1.311,5.82,0.83c1.81-5.41,2.93-11.489,8.33-13.31
			c0.77-7.28,1.39-14.7,4.159-19.98c-0.14-0.97-1.52-0.699-2.5-0.83c6.221-3.64-1.89-8.079-1.659-13.31
			c-24.03-2.98-40.521,1.19-61.591-4.17c-0.739,2.689,2.721,1.17,3.33,2.5c-24,2.08-52.529-0.38-75.72,2.5
			c-4.49,8.55-13.52,12.56-14.15,24.96c-3.479,0.13-3.13,4.09-4.159,6.66c-4.78,1.33-11.5,0.71-17.48,0.83
			c1.82-2.34,1.59-6.73,5.83-6.65c1.38-6.66-4.28-6.27-5.83-9.99c-1.67-0.279-2.6,0.17-2.49,1.66c-0.44-1.87-5.58-13.35,1.66-15.81
			c-6.28-5.971-17.47-3.01-29.13-3.33c-27.68-0.76-62.08-1.8-86.54,0.84c-0.13,2.62,3.37,1.62,4.16,3.33
			c-3.38,2.51-4.38-4.48-9.99-2.5c3.46,1.81,5.72,4.82,10.82,4.99c-0.75,1.47-1.86,2.58-3.33,3.33c0.14,0.979,1.52,0.699,2.5,0.83
			c-0.9,2.71-2.89,4.329-3.33,7.489c6-2.54,7.46-1.2,14.15-1.66c0.07,1.32-0.4,3.171,0.83,3.33c-7.96,5.08-15.7,10.38-24.13,14.98
			c-1.58-0.101-0.58-2.76-2.5-2.5c-2.15,0.2,1.14,1.43,0,3.33c-6.18-1.47-5.94,3.49-9.99,4.16c0.12-3.681-2.04,0.08-4.16-0.83
			c1.39-1.391,3.37-2.181,3.33-5c5.09,3.04,5.36-3.12,8.32-2.49c-0.36-1.94-3.67-2.23-1.66-4.16c3.36,4.94,3.32-4.49,7.49-0.84
			c1.19-2.54-0.31-2.6,0.83-5.82c-6.22-0.95-6.5,4.04-11.65,4.16c-3.12-0.49-3.09-4.13-6.66-4.16c-1.71,0.44-0.2,3.94-2.49,1.66
			c0,1.67,0,3.33,0,5c-0.98-1.8-1.73-3.83-2.5-5.83c2.4,2.41,1.97-2.26,4.16-2.5c3.4-0.12,9.95,2.811,11.65-0.83
			c-1.77-0.71-5.77,0.17-9.15-0.83c1.93-2.229,5.42-2.899,6.65-5.83c-0.08-2.569-3.25,2.58-3.33,0c1.44-4.39,6.94-4.71,12.49-4.989
			c-2.35-3.28-2.37-2.59,0.83-4.99c-3.29-3.37-11.9-1.42-15.81-4.16c1.83-3.439,4.29-6.25,4.99-10.82
			c16.33-2.529,32.47,3.86,43.27-4.989c3.17,1.27,4.98,3.89,8.33,4.989c3.25-1.899,0.06-5.06,0.83-9.149
			c9.05-3.91,12.63-8.34,24.13-9.99c-0.59,3.08,1.42,3.57,0.83,6.66c-7.46,3.63-13.39,8.79-21.63,11.649
			c0.66,1.551,1.39,3.04,1.66,4.99c5.15-0.68,6.39-5.26,12.48-4.99c8.34-10.8,23.47-14.819,38.28-19.14
			c2.97,1.47,1.86,7.021,3.33,9.98c2.86-0.471,2.89-3.771,5-4.99c9.89-1.01,17.51,6.25,25.79,1.66c-2.96-2.59,1.859-2.96-1.66-4.99
			c9.3-2.9,26.979-0.61,42.439-1.66c20.23-1.38,42.08-10.77,54.921-0.84c2.529-0.79,3.479-3.18,5-4.99
			c3.93,2.17,9.8,2.4,12.479,5.83c1.64-0.58,2.22-2.22,2.5-4.16c5.69,0.79,14.76-7.63,21.63-12.489
			c6.84-4.83,12.95-9.66,17.48-14.141c-1.891-4.38-1.09-12.55,3.33-13.32c4.56,0.631,8.109,8.561,4.159,12.48
			c13.83,4.76,30.9,6.27,47.431,8.33c0,16.36,0,32.729,0,49.09c-11.78,1.98-26.67,3.79-39.94,1.67c-0.819,2.79-3.6,3.61-4.16,6.66
			c16.37,2.44,31,5.34,44.101,9.15c0,10.819,0,21.64,0,32.46c-1.351-1.261-6.141-1.261-7.49,0c2.28,4.659,2.45,11.42,7.49,13.31
			c0,1.66,0,3.33,0,4.99c-1.66-0.83-1.311-3.68-4.16-3.33c-2.44,0.71,0.5,2.68,0,4.17c-2.25-0.25-1.49-3.51-3.33-4.17
			c1.24-0.98,2.35-2.08,3.33-3.32c-0.24-1.7-2.25-1.64-2.5-3.33c-3.01,1.42-2.46,6.41-2.49,10.82c-4.109,0.78-5.649-1.02-7.49-2.5
			c-1.29,1.21-0.729,4.26-0.83,6.66c-0.27,2.2,4.66-0.78,3.33,2.49c-4.34-0.061-0.43,3.279-5,3.33c0.96,0.979,0.94,2.939,0.83,4.989
			c-0.77-0.609-1.26-1.51-1.66-2.489c-4.01,1.56-0.68,5.51-0.829,5.819c-4.15,3.55-1.37-5.41-3.33-6.649
			c-1.82,0.119-1.79,2.09-1.67,4.159c-2.561,0.62-1.591-2.29-4.16-1.67c0.38,4.62,5.13,4.86,3.33,11.65
			c4.52,1.2,2.39-4.271,5.83-4.16c0.619,2.561-2.29,1.601-1.671,4.16c2.44-0.06,4.69-0.3,4.16-3.33c1.12,0.55,1.551,1.78,1.67,3.33
			c2.181-1.42,2.57-4.64,4.16-6.66c1.95,3.75,2.66-2.54,7.49-0.83c-0.34,1.61-3.81,0.08-2.5,3.33c0.11,1.84,3.53,0.36,5,0.83
			C398.54,508.6,398.599,510.76,401.2,510.37z M360.429,504.55c2.04,1.44,6.67-0.109,6.65-3.33c-2-2.01-2.2,2.021-5.82,0.83
			C361.29,503.2,360.87,503.88,360.429,504.55z M337.959,523.69c0-0.83,0-1.66,0-2.5c-2.44,1.239-3.09-0.94-4.16,1.67
			C334.759,523.56,336.03,523.96,337.959,523.69z M323.809,408.85c3.221,1.221,8.271,0.601,11.65,1.66
			c-1.54-3.09-9.43-7.109-12.48-3.33C323.629,407.37,323.95,407.88,323.809,408.85z M288.03,393.04c3.64,0.15,4.27-2.71,7.489-0.83
			C294.969,387.95,287.959,388.21,288.03,393.04z M290.519,405.52c0.73-2.67-1.279-2.6-2.489-3.329
			c-0.271,1.13-1.19,1.59-0.84,3.329C288.299,405.52,289.41,405.52,290.519,405.52z M192.33,449.63c1.6,1.61,5.09,0.87,4.16-2.5
			C194.099,446.97,191.94,447.03,192.33,449.63z M183.169,415.51c-3.28-1.43-7.03-2.399-11.65-2.5
			C170.259,418.42,181.439,418.41,183.169,415.51z M160.7,409.68c1.61-2.02,0.8-6.96,0-9.149c-5.5,0.04-8.13,2.96-9.15,7.489
			C154.919,408.25,157.33,409.45,160.7,409.68z M56.68,441.3c2.61,0.34,5.56-3.24,3.33-4.99c-2.98,2.721-5.07-0.359-9.99,0
			c0.22,3.391,3.88,3.341,5.83,4.99c0.33-1.43-1.24-2.13,0-2.49C56.819,438.95,56.75,440.12,56.68,441.3z M51.689,435.48
			c2.86,0.289,5.6-4.311,2.49-4.99C52.979,431.78,50.83,432.13,51.689,435.48z"/>
		<path fill="#222222" d="M401.2,482.91c0,9.16,0,18.31,0,27.46c-2.601,0.39-2.66-1.771-2.49-4.16c-1.47-0.47-4.89,1.01-5-0.83
			c-1.31-3.25,2.16-1.72,2.5-3.33c-4.83-1.71-5.54,4.58-7.49,0.83c-1.59,2.021-1.979,5.24-4.16,6.66
			c-0.119-1.55-0.55-2.78-1.67-3.33c0.53,3.03-1.72,3.271-4.16,3.33c-0.619-2.56,2.29-1.6,1.671-4.16
			c-3.44-0.11-1.311,5.36-5.83,4.16c1.8-6.79-2.95-7.03-3.33-11.65c2.569-0.62,1.6,2.29,4.16,1.67c-0.12-2.069-0.15-4.04,1.67-4.159
			c1.96,1.239-0.82,10.199,3.33,6.649c0.149-0.31-3.181-4.26,0.829-5.819c0.4,0.979,0.891,1.88,1.66,2.489
			c0.11-2.05,0.13-4.01-0.83-4.989c4.57-0.051,0.66-3.391,5-3.33c1.33-3.271-3.6-0.29-3.33-2.49c0.101-2.4-0.46-5.45,0.83-6.66
			c1.841,1.48,3.381,3.28,7.49,2.5c0.03-4.41-0.52-9.4,2.49-10.82c0.25,1.69,2.26,1.63,2.5,3.33c-0.98,1.24-2.09,2.34-3.33,3.32
			c1.84,0.66,1.08,3.92,3.33,4.17c0.5-1.49-2.44-3.46,0-4.17C399.889,479.23,399.54,482.08,401.2,482.91z M396.209,487.07
			c1.21-0.45,4.3,0.979,4.16-0.83c-0.65-0.181-0.97-0.7-0.83-1.66C397.459,484.44,396.929,485.86,396.209,487.07z M390.379,498.72
			c-2.84,0.36-2.5-2.489-4.16-3.319c0.54,3.029-0.56,4.43-1.66,5.819c3.351-1.08,2.04-1.64,4.99,0
			C389.519,500.08,389.94,499.39,390.379,498.72z"/>
		<path fill="#222222" d="M401.2,464.61c0,4.43,0,8.87,0,13.31c-5.04-1.89-5.21-8.65-7.49-13.31
			C395.059,463.35,399.849,463.35,401.2,464.61z"/>
		<path fill="#222222" d="M401.2,414.67c0,5.83,0,11.66,0,17.48c-13.101-3.811-27.73-6.71-44.101-9.15
			c0.561-3.05,3.341-3.87,4.16-6.66C374.53,418.46,389.419,416.65,401.2,414.67z"/>
		<path fill="#00ADEE" d="M401.2,304.83c0,0.55,0,1.11,0,1.66c-3.061-0.271-7.37,0.71-9.15-0.83
			C393.469,303.75,398.4,305.35,401.2,304.83z"/>
		<path fill="#00ADEE" d="M401.2,0.25c0,97.64,0,195.28,0,292.93c-7.91,0.41-17.561-0.92-24.13,0.83c-1.83-4.82-6.07-7.25-9.99-9.99
			c-7.73-20.01-20.65-34.82-29.12-54.09c-7.33-7.93-23.19-7.32-32.46-13.31c-4.39,0.05-5.14,3.73-9.15,4.16
			c-5.939-16.3-29.43-13.4-46.6-16.65c-0.4-5.11,0.83-8.59,1.66-12.48c-6.5-1.23-6.061,4.48-7.49,8.32
			c-3.11-4.04-9.97,1.56-13.31-4.16c4.43-5.82,14.279,2.41,15.81-5.82c0.76-4.1-2.06-4.24-3.33-8.33
			c-12.47-0.84-22.17-4.45-32.46-7.48c-4.04,0.65-4.32,4.73-9.15,2.49c-1.3-12.68-7.67-25.95-19.97-22.47
			c3.35-5.52,10.84-6.91,17.47-9.15c2.631-2.87-3.51-2.02-2.489-5.83c3.239,1.75,9.569,0.42,14.14,0.84
			c-1.57,11.08-0.27,19.93-4.99,27.46c4.771,4.76,13.891,0.4,18.311-2.5c-0.11-2.38-5.71,0.72-5.83-1.66
			c0.81-5.03,7.3-4.36,11.649-5.83c3.811,2.3,5.9,6.31,10.82,7.49c0.9-3.96-5.35-7.95-8.32-10.82c-6.329,0.06-11.51,1.26-16.64,2.5
			c-1.42-2.51,7.43-11.87,14.98-8.32c1.09-9.1-8.261-8.4-14.98-12.48c-5.93-3.6-7.97-9.13-11.65-9.99
			c-8.35-1.95-13.239,4.54-21.64,4.99c-2.76-2.79-6.93-4.16-7.49-9.15c-9.71,6.97-19.63,18.99-19.97,34.95
			c-0.1,4.67,2.49,8.97,2.49,13.31c0,9.8-3.2,20.95,7.49,24.97c-1.17,10.87,11.84,12.67,6.66,22.47
			c-10.51-0.53-19.89-6.46-29.96-2.5c-2.49,3.34-2.37,9.28-4.16,13.32c-14.36-0.22-25.67,2.62-34.12,8.32
			c-0.35,9.63-6.16,13.81-14.14,15.81c-1.57,16.19-9.97,25.54-21.64,31.62c-1.1,3.62-0.24,9.19-2.5,11.65
			c-10.64,2.53-22.57-0.67-34.12,0c5.6-7.97,0.16-20.88-9.98-20.8c-0.98,1.84,3.9,4.94,7.49,4.99c-7.5,1.94-18.58,0.28-27.47,0.83
			c0-0.83,0-1.66,0-2.49c7.92,0.42,9.73-5.26,18.31-4.16c-4.97-2.52-8.73-5.12-9.15-7.49c-4.28,0.71,1.72,3.2,0.83,5.82
			c-4.2-4.22-4.86-2.78-8.32-1.66c-0.02-0.81-1.02-0.65-1.67-0.83c0-82.67,0-165.33,0-247.99c1.47,0.75,1.38,3.06,3.33,3.33
			c0.54-0.85,1.92-0.87,1.67-2.5c-1.02-1.21-3.33-1.12-3.33-3.33c1.97-0.46,3.45-3.22,1.66-4.99c-2.67-0.73-1.72,2.16-3.33,2.49
			c0-5.54,0-11.09,0-16.64c4.17,0,8.33,0,12.49,0c-0.91,2.14-2.11,4-4.16,4.99c0.43-1.23,1.23-2.09,1.66-3.33
			c-4.68-0.52-6.51,1.82-7.49,5c0.94,1,2.38,1.51,1.67,4.16c2.72,1.71,6.93,1.94,8.32,4.99c2.86-3.9-4.04-3.94-5-6.66
			c2.22-3.05,6.78-3.76,6.66-9.15C143.779,0.25,272.49,0.25,401.2,0.25z M234.769,150.87c5.511,1.7,3.761,10.67,9.98,11.65
			C243.69,156.92,240.7,148.84,234.769,150.87z M238.099,140.89c0.48-3.18-0.029-2.61,2.49-4.16c-4.689-0.3-4.68-5.31-8.32-6.66
			c1.471-1.55,2.431,0.36,4.16,0.83c0.261-8.44-20.34-10.42-17.47,1.67C227.07,133.61,230.33,139.5,238.099,140.89z M15.899,1.08
			c-0.65,3.21,3.99,3.21,3.33,0C18.12,1.08,17.009,1.08,15.899,1.08z M11.739,22.72c0.7-0.97,1.1-2.23,0.84-4.16
			c-0.84,0-1.67,0-2.5,0C9.959,20.62,9.919,22.6,11.739,22.72z M8.41,23.55c1.07-1.09,1.07-3.07,0-4.16c-0.83,0-1.66,0-2.49,0
			C6.009,21.52,7.439,22.3,8.41,23.55z M8.41,16.89c0.31-5.02-4.45-4.98-5.82-8.32C0.689,12.21,5.62,15.27,8.41,16.89z M7.58,40.19
			c0.68-1.48-2.24-5.13-4.16-6.65c0.06,1.45-0.18,2.59-0.83,3.33c2.72-0.42,1.76,4.13,4.16,1.66C6.939,39.18,6.77,40.17,7.58,40.19z
			"/>
		<path fill="#00ADEE" d="M400.37,486.24c0.14,1.81-2.95,0.38-4.16,0.83c0.72-1.21,1.25-2.63,3.33-2.49
			C399.4,485.54,399.719,486.06,400.37,486.24z"/>
		<path fill="#00ADEE" d="M386.219,495.4c1.66,0.83,1.32,3.68,4.16,3.319c-0.439,0.67-0.86,1.36-0.83,2.5
			c-2.95-1.64-1.64-1.08-4.99,0C385.66,499.83,386.759,498.43,386.219,495.4z"/>
		<path fill="#00ADEE" d="M389.549,305.66c-1.58,1.75-11.25,3.35-12.479,0C377.049,303.55,387.04,304.84,389.549,305.66z"/>
		<path fill="#00ADEE" d="M379.57,323.13c4.189,6.08,5.939,23.55-1.67,28.3c0.3-4.46-2.311-6.01-3.33-9.149
			c-3.051,0.34-4.271,1.529-4.99-1.67c-0.771-3.261,4.39-0.601,4.99-2.5c-0.841-4.601-3.63-2.261-6.65-0.83
			c-1.35-1.7-1.26-4.84-3.33-5.82c-2.8-0.86-1.3,2.58-1.67,4.16c-2.68-0.95-2.14-5.62-2.49-6.66c-3.58,0.84-4.21,7.7-1.67,9.99
			c-0.55,1.109-1.78,1.55-3.33,1.66c-0.399,2.62,2.561,1.89,1.67,4.989c-1.6-1.449-5.13-0.97-5-4.159
			c-0.79-3.011,3.601-0.841,4.16-2.49c-0.24-1.7-2.25-1.641-2.49-3.33c-4.909,3.14-8.27,7.82-10.819,13.31
			c-4.5,2.44-13.521-2.199-14.15,2.5c-5.24-1.399-12.34-5.069-17.47-1.67c0.09,2.13,2.78,1.66,4.99,1.67
			c1.12,1.71-8.36-0.069-9.15,2.5c0,1.94,0,3.88,0,5.82c-1.74,0.48-2.38,2.06-5,1.67c1.05,5.76-1.69,7.73-4.99,9.15
			c-0.68-4.58,6.79-8.181,5.82-15.811c-8.521,4.79-17.2,9.431-19.97,19.971c-15.7,1.52-35.69,3.109-48.261,4.989
			c-0.5-2.989,2.54-2.45,2.49-4.989c-4.359,2.579-7.78,6.079-13.31,7.489c-3.92-1.069-5.15-4.84-10.82-4.16
			c1.98-7.46,12.58-6.29,18.311-9.989c-12.891-1.9-26.49,7.22-39.95,7.489c-5.11,0.11-9.87-1.29-14.14,2.5
			c-1.25-1.529-3.48-2.079-4.16-4.159c-3.55,0.34-3.53,4.239-7.49,4.159c-1.92-1.97-4.23-3.54-3.33-8.319
			c21.63-4.95,40.229-14.7,59.91-19.141c-18.25-0.52-43.55,12.601-59.91,4.16c-1.88,1.73-2.38,4.83-4.16,6.66
			c-3.27-0.62-3.72-4.06-5.83-5.83c-2.76,0.021-0.84,4.7-2.5,5.83c-4.84-1.54-10.84-1.92-10.81-8.33
			c-10.38,3-12.86-7.899-19.98-10.81c-2.48,0.56-5.09,1-5.82,3.319c6.52,5.141,13.47,8.431,19.97,13.32
			c6.07,4.57,12.39,9.74,19.97,12.48c0.43,4.29,4.37,5.069,5,9.149c-3.52-3-6.96-2.42-9.99,0.84c-2.42-2.58-6.58-3.409-11.65-3.33
			c-4.53-7.949-15.06-9.909-18.31-19.14c-2.88-0.67-3.2,1.24-5.82,0.83c-0.64-3.53-3.88-4.44-5.83-6.66
			c-0.44-3.22,1.49-4.06,0.83-7.49c-5.24,0.03-5.31,5.24-7.49,8.33c-8.8,6.15-15.5-7.43-24.96-9.16c-6.15-1.119-12.17,3-14.98-4.159
			c-9.03,1.26-9.51-6.021-16.64-6.66c9.03-28.13,51.51-9.83,69.07-1.66c10.89-4.17,17.53-16.75,32.45-14.15
			c2.72-2.55,1.32-9.22,1.67-14.14c2.84,1.94,1.76,10.1,0.83,13.31c5.74,10.65,23.45,13.681,24.96,25.801
			c14.04-4.551,29.08-8.101,43.28-12.49c-9.78-8.521-36.64,0.03-44.11-10.811c-3.09,1.341-2.53,6.341-6.66,6.65
			c-7.47-6.7,4.11-9.83,8.33-12.479c-3.41-17.99,29.96-26.721,30.79-6.66c5.57-0.311,7.681,2.859,12.48,3.33
			c0.49,3.109,2.91,4.31,4.16,6.659c12.41,2,14.31,13.131,27.46,14.98c10.36,1.45,20.92-3.75,34.12-4.99
			c10.22-0.97,19.979-6.439,29.13-7.49c3.8-0.439,8.02,0.36,12.479,0C344,318.18,368.82,307.59,379.57,323.13z M355.429,321.47
			c3.16,2.11,4.971,5.57,10.82,4.99C364.559,323.42,359.37,319.5,355.429,321.47z M352.099,326.46c1.45-0.77,4.471,0.03,4.16-2.49
			c-2.92-2.33-6.26,2.03-9.149,2.49c0.96,2.93,2.489,5.29,6.659,5C354.169,328.84,351.209,329.57,352.099,326.46z M347.94,337.28
			c-2.61-0.12-2.86,2.14-3.33,4.16C347.639,341.97,347.879,339.72,347.94,337.28z M344.61,339.78c-0.181-1.57,0.939-1.84,0.84-3.33
			C343.459,333.86,339.919,340.23,344.61,339.78z M342.95,336.45c-0.19-1.57,0.939-1.84,0.83-3.33c-2.17-0.23-3.58,0.3-3.33,2.5
			C341.519,335.66,341.61,336.68,342.95,336.45z M341.29,343.11c0.25-4.42-2.8-5.53-3.33-9.16c-1.93-0.26-3.2,0.14-4.16,0.84
			c0,0.83,0,1.66,0,2.49c0.26,1.96,3.94,0.5,3.32,3.33c-1.141-0.04-1.82,0.39-2.49,0.83c-0.37-2.681-1.27-4.83-5-4.16
			c-1.08,2.069,2.45,3.46,0,4.16c-3.6-3.431-12.3-1.011-14.97,1.67C321.049,338.66,334.509,348.76,341.29,343.11z M309.66,343.11
			c2.03-0.471,4.28-0.721,4.16-3.33C311.11,339.56,309.82,340.77,309.66,343.11z M306.33,344.77c-3.87,1.101-2.78-2.76-6.65-1.659
			c-0.72,1.939,2.91,3.58,0.83,4.159c-2.64-0.97-2.05-5.159-4.99-5.829c-1.989,2.239,1.11,4.43,1.66,6.659
			c-3.35-0.85-3.7,1.301-4.989,2.5c-0.101-2.13-0.16-4.279-2.5-4.159c-0.48,1.46,1.01,4.89-0.83,4.989
			c0.029-2.529,0.479-5.479-2.5-4.989c-0.83,2.84,2.59,4.739-1.66,4.159c-0.13,4.561-0.09,8.96,0.83,12.48
			C297.049,359.72,299.809,352.46,306.33,344.77z M198.979,307.32c-0.77-3.82,2.091-4.021,1.671-7.49
			c-10.62-7.77-25.88,1.01-26.63,13.32C182.5,311.37,189.599,308.21,198.979,307.32z M171.52,343.94c-4.77-0.5-6.73-3.811-9.15-6.66
			c-1.76,0.739-1.45,3.55-4.16,3.33c-8.7-4.62-18.79-7.851-24.14-15.811c-2.86,2.29-6.31-0.6-9.15,0.83
			c-0.64,3.97,1.3,5.36,0.83,9.16C136.509,341.82,156.64,356.4,171.52,343.94z M135.739,346.44c-1.01,3.02,1.34,6.89,3.33,4.159
			C137.219,349.94,139.229,345.45,135.739,346.44z"/>
		<path d="M366.04,600.25c3.85,0,7.68,0,11.51,0C373.9,600.41,370.019,600.37,366.04,600.25z"/>
		<path fill="#00ADEE" d="M367.919,345.6c2.84-2.96,6.13,4.15,1.66,4.16C370.78,346.62,367.29,348.17,367.919,345.6z"/>
		<path fill="#222222" d="M367.08,501.22c0.02,3.221-4.61,4.771-6.65,3.33c0.44-0.67,0.86-1.35,0.83-2.5
			C364.879,503.24,365.08,499.21,367.08,501.22z"/>
		<path fill="#00ADEE" d="M366.04,600.25c-105.01,0-217.18,0-325.53,0c6.42-0.38,12.84-0.83,18.67-0.83c94.55,0,192.5,0,282.94,0
			C349.65,599.42,358.03,600.01,366.04,600.25z"/>
		<path fill="#222222" d="M366.25,326.46c-5.85,0.58-7.66-2.88-10.82-4.99C359.37,319.5,364.559,323.42,366.25,326.46z"/>
		<path fill="#00ADEE" d="M361.259,337.28c-2.6,0.38-2.66-1.78-2.5-4.16C361.099,333,361.16,335.16,361.259,337.28z"/>
		<path fill="#222222" d="M356.259,323.97c0.311,2.521-2.71,1.721-4.16,2.49c-0.89,3.11,2.07,2.38,1.67,5
			c-4.17,0.29-5.699-2.07-6.659-5C350,326,353.339,321.64,356.259,323.97z"/>
		<path fill="#222222" d="M344.61,341.44c0.47-2.021,0.72-4.28,3.33-4.16C347.879,339.72,347.639,341.97,344.61,341.44z"/>
		<path fill="#222222" d="M345.45,336.45c0.1,1.49-1.021,1.76-0.84,3.33C339.919,340.23,343.459,333.86,345.45,336.45z"/>
		<path fill="#222222" d="M343.78,333.12c0.109,1.49-1.021,1.76-0.83,3.33c-1.34,0.229-1.431-0.79-2.5-0.83
			C340.2,333.42,341.61,332.89,343.78,333.12z"/>
		<path fill="#222222" d="M337.959,333.95c0.53,3.63,3.58,4.74,3.33,9.16c-6.78,5.649-20.24-4.45-26.63,0
			c2.67-2.681,11.37-5.101,14.97-1.67c2.45-0.7-1.08-2.091,0-4.16c3.73-0.67,4.63,1.479,5,4.16c0.67-0.44,1.35-0.87,2.49-0.83
			c0.62-2.83-3.061-1.37-3.32-3.33c0-0.83,0-1.66,0-2.49C334.759,334.09,336.03,333.69,337.959,333.95z"/>
		<path fill="#222222" d="M337.959,521.19c0,0.84,0,1.67,0,2.5c-1.93,0.27-3.2-0.131-4.16-0.83
			C334.87,520.25,335.519,522.43,337.959,521.19z"/>
		<path fill="#00ADEE" d="M331.299,354.76c0.18,3.38-4.32-0.6-5.83-0.83C326.419,351.98,330.959,353.35,331.299,354.76z"/>
		<path fill="#222222" d="M335.459,410.51c-3.38-1.06-8.43-0.439-11.65-1.66c0.141-0.97-0.18-1.479-0.83-1.67
			C326.03,403.4,333.919,407.42,335.459,410.51z"/>
		<path fill="#00ADEE" d="M323.809,548.66c2.08,0.57-1.54,2.21-0.83,4.16c-9.189-2.53-7.069,6.239-14.149,5.819
			c-0.11-2.42-0.7-5.58-4.99-5.819c-0.14-7.63,0.62-16.16-5.83-17.48c0.01-1.649,2.271-1.06,1.67-3.33
			c-1.649-2.02-3.88,1.3-4.16-2.5c-1.3-2.95,2.82-0.5,2.49-2.49c-2.89-9.18-7.88-15.899-5.819-25.8
			c4.569-0.689,3.1-7.43,3.329-12.479c7.53-0.07,5.591-4.71,10.811-0.83c0.01,0,3.34,1.83,3.34,1.68
			c3.56,4.87,1.44,14.811,3.32,20.78c0.109,0.36,6.37,9.84,8.06,8.67c-2.83,4.17,3.95,8.68-1.399,12.97
			c1.029,2.29,4.949,1.71,4.989,4.99c-1.6,3.39-4.319,5.67-4.16,10.82c-1.659,0-3.329,0-4.989,0c0,1.39,0,2.779,0,4.16
			C319.059,550.01,321.389,550.52,323.809,548.66z"/>
		<path fill="#00ADEE" d="M322.15,353.09c-0.62,1.37-4.5-0.99-4.171-3.33C321.11,349.14,319.799,352.94,322.15,353.09z"/>
		<path fill="#FFFFFF" d="M321.309,518.7c-0.06,0.149-0.149,0.27-0.25,0.34C321.129,518.93,321.219,518.81,321.309,518.7z"/>
		<path fill="#00ADEE" d="M318.82,556.14c0.649,3.21-3.99,3.21-3.33,0C316.599,556.14,317.709,556.14,318.82,556.14z"/>
		<path fill="#00ADEE" d="M316.32,590.26c1.13-5.42,2.699-0.72,1.659,1.67c-1.89,1.141-3.119-2.149-3.319,0
			c-2.44-1.729-1.29-7.029-5.83-6.66c0.56-1.93,2.77-2.229,3.33-4.159c-0.21-1.771-3.03-0.761-3.33,0.43
			c-0.05-4.34,0.22-9.021-1.66-14.58c9.58-2.35,9.28,1.29,9.98,9.99c-2.771,0.84-2.73-1.16-2.49-3.33
			c-2.21,0.01-4.76-0.311-5.83,0.83c2.02,3.53,8.53,2.569,9.99,6.66c-0.54,2.52-1.301,4.8-4.16,4.989
			C315.009,587.69,316.45,588.19,316.32,590.26z"/>
		<path fill="#00ADEE" d="M315.49,559.47c1.1,2.09-3.29,2.61-0.83,3.33c-1.03,3.061-5.01-2.01-5.83,0.83c-2.44-0.7,1.08-2.09,0-4.16
			C310.469,561.12,313.58,560,315.49,559.47z"/>
		<path fill="#222222" d="M313.82,339.78c0.12,2.609-2.13,2.859-4.16,3.33C309.82,340.77,311.11,339.56,313.82,339.78z"/>
		<path fill="#FFFFFF" d="M308.83,581.54c0,0.13,0,0.27,0,0.4C308.79,581.81,308.799,581.67,308.83,581.54z"/>
		<path fill="#222222" d="M299.679,343.11c3.87-1.101,2.78,2.76,6.65,1.659c-6.521,7.69-9.28,14.95-20.8,18.311
			c-0.92-3.521-0.96-7.92-0.83-12.48c4.25,0.58,0.83-1.319,1.66-4.159c2.979-0.49,2.529,2.46,2.5,4.989
			c1.84-0.1,0.35-3.529,0.83-4.989c2.34-0.12,2.399,2.029,2.5,4.159c1.289-1.199,1.64-3.35,4.989-2.5
			c-0.55-2.229-3.649-4.42-1.66-6.659c2.94,0.67,2.351,4.859,4.99,5.829C302.589,346.69,298.959,345.05,299.679,343.11z"/>
		<path fill="#222222" d="M295.519,392.21c-3.22-1.88-3.85,0.98-7.489,0.83C287.959,388.21,294.969,387.95,295.519,392.21z"/>
		<path fill="#222222" d="M288.03,402.19c1.21,0.729,3.22,0.659,2.489,3.329c-1.109,0-2.22,0-3.329,0
			C286.839,403.78,287.759,403.32,288.03,402.19z"/>
		<path fill="#00ADEE" d="M279.7,499.56c5.2,1.23,3.81,7.41,7.49,8.32c-2.101,2.33-3.53,5.34-4.99,8.32
			c-2.49-1.391-6.23-1.54-7.49-4.16c-0.15-1.82,0.68-2.65,2.5-2.5c-0.26-1.13-2.09-0.69-3.33-0.83c-0.39-1.78,1.19-1.58,2.5-1.66
			c-2.27-2.53-0.87-4.069,0-7.49c1.12,0.25,0.69,2.08,0.83,3.32C279.4,503.14,279.94,501.73,279.7,499.56z"/>
		<path fill="#00ADEE" d="M269.719,543.66c0.601,2.55-1.439,2.45-0.83,5c-2.359-0.69-2.16,1.17-4.17,0.83
			c0.03,2.529,2.61,6.77-1.66,6.649c1.62-2.04,0.83-6.989-0.83-8.319c0.2-2.141,1.431,1.149,3.33,0c-0.56-2.66-2.88-3.511-5-2.49
			c-1.369-0.84-0.899-3.54-1.659-5c0.97-0.7,2.229-1.09,4.159-0.83c1.03-2.69-2.689-0.63-1.659-3.33c3.68,0.1,8.449,5.13,3.319,6.66
			C264.83,544.67,268.25,543.18,269.719,543.66z"/>
		<path fill="#00ADEE" d="M270.549,514.54c-1.68,1.62-5.24-1.94-4.99-5C268.36,510.06,267.599,514.16,270.549,514.54z"/>
		<path fill="#00ADEE" d="M266.389,505.38c2.57-0.14,3.74,2.93,2.5,4.16c-1.51-3.3-4.93-0.45-6.66,0.83
			c0.62,2.439,3.5,2.6,2.49,6.66c-2.47-2.09-5.8-5.42-3.319-9.98C263.11,506.54,267.179,508.39,266.389,505.38z"/>
		<path fill="#222222" d="M244.75,162.52c-6.22-0.98-4.47-9.95-9.98-11.65C240.7,148.84,243.69,156.92,244.75,162.52z"/>
		<path fill="#222222" d="M240.589,136.73c-2.52,1.55-2.01,0.98-2.49,4.16c-7.77-1.39-11.029-7.28-19.14-8.32
			c-2.87-12.09,17.73-10.11,17.47-1.67c-1.729-0.47-2.689-2.38-4.16-0.83C235.91,131.42,235.9,136.43,240.589,136.73z"/>
		<path fill="#00ADEE" d="M210.629,377.23c3.311,5.149-7.79,9.21-9.979,4.159C200.919,377.47,208.28,376.29,210.629,377.23z"/>
		<path fill="#00ADEE" d="M208.969,286.52c0.82,2.23,1.71,4.39,1.66,7.49c-13.06-3.86-33.87,0.03-48.26-2.5
			c-0.14-1.8,2.95-0.37,4.16-0.83c-4.66-2.86-12.26-1.21-18.31-0.83c0.2,1.46,1.43,1.89,3.33,1.66c-1.21,2.53-7.1,2.27-4.16-1.66
			c-2.89-0.67-3.2,1.24-5.83,0.83c3.86-8.63,20.78-4.19,30.79-6.66c-1.04-20.31-7.51-35.21-6.65-57.42
			c5.82,16.65,6.57,38.37,9.98,57.42C188.16,283.47,198.69,284.87,208.969,286.52z"/>
		<path fill="#222222" d="M200.65,299.83c0.42,3.47-2.44,3.67-1.671,7.49c-9.38,0.89-16.479,4.05-24.959,5.83
			C174.77,300.84,190.03,292.06,200.65,299.83z"/>
		<path fill="#222222" d="M196.49,447.13c0.93,3.37-2.561,4.11-4.16,2.5C191.94,447.03,194.099,446.97,196.49,447.13z"/>
		<path fill="#222222" d="M171.52,413.01c4.62,0.101,8.37,1.07,11.65,2.5C181.439,418.41,170.259,418.42,171.52,413.01z"/>
		<path fill="#00ADEE" d="M175.68,454.62c0.37,1.02,1.07,1.71,2.5,1.66c-0.05,2.729-2.37,3.18-1.67,6.66
			c-3.49-0.12-3.4-3.811-3.32-7.49c1.65-0.84,3.55-1.44,4.16-3.33C179.91,452.95,176.419,454.37,175.68,454.62z"/>
		<path fill="#222222" d="M162.37,337.28c2.42,2.85,4.38,6.16,9.15,6.66c-14.88,12.46-35.01-2.12-45.77-9.15
			c0.47-3.8-1.47-5.19-0.83-9.16c2.84-1.43,6.29,1.46,9.15-0.83c5.35,7.96,15.44,11.19,24.14,15.811
			C160.919,340.83,160.609,338.02,162.37,337.28z"/>
		<path fill="#222222" d="M160.7,400.53c0.8,2.189,1.61,7.13,0,9.149c-3.37-0.229-5.78-1.43-9.15-1.66
			C152.569,403.49,155.2,400.57,160.7,400.53z"/>
		<path fill="#00ADEE" d="M152.379,515.37c2.31,0.96,2.41,6.7-1.66,5.82c0.19,1.479-0.84,4.17,1.66,3.329
			c0.62,2.561-2.28,1.601-1.66,4.16c-0.78-0.609-1.26-1.51-1.67-2.489c-0.91,3.27-8.39,4.329-6.65,7.489
			c-4.41-1.14-8.11,2.07-12.49,3.32c0.03,2.75,2.37,3.19,5,3.33c-0.01,4.85-12.39-2.41-7.49-4.99c-0.44-0.67-0.87-1.35-0.84-2.5
			c-4.24-0.75-0.74,6.24-4.99,3.33c-1.09,3.59,3.96,1.03,3.33,4.16c-2.53,0.04-3.24-1.75-4.99-2.49c-2.59-0.09-2.38,2.62-5.83,1.66
			c-1.03,2.69,2.69,0.64,1.67,3.33c-1.11,0-2.22,0-3.33,0c0.96-3.47-0.07-4.11-0.84-7.49c1.5,0.11,1.76-1.02,3.33-0.83
			c0-1.39,0-2.779,0-4.16c-2.99,0.341-2.98,3.67-6.65,3.33c0.01,1.65,2.27,1.051,1.66,3.32c-2.35,0.69-2.16-1.17-4.16-0.83
			c1.14-4.13,6.65-3.89,5.82-9.979c2.55,0.6,2.45-1.44,5-0.841c-2.27-4.04-10.57-4.68,0-4.159c-0.95-2.11-3.69-2.41-6.66-2.49
			c-0.39-1.78,1.19-1.59,2.5-1.67c1.13-0.261,0.69-2.08,0.83-3.33c3.44-0.391,2.21,3.899,3.33,5.83c4.64,0.01,1.74-6.49,0.83-8.32
			c-0.58,0.65-4.64,1.85-4.99,0c0.44-3.44,6.34-1.43,6.65-5c-0.36-1.229-1.06,0.33-2.49,0c0.94-3.49,3.39-5.479,6.65-6.65
			c0.69-2.359-1.17-2.159-0.83-4.159c1.39,0,2.78,0,4.16,0c0.58-2.24-1.72-1.61-2.49-2.5c3.91-1.641,6.34-4.761,6.65-9.99
			c2.42-0.91,5.63-1.03,5.83-4.16c0.98,0.96,2.94,0.94,4.99,0.83c-3.23,2.77,2.63,6.14,0.84,12.49c-4.41,0.029-3.91,4.97-4.17,9.149
			c-3.65-0.87-2.73,2.82-5.82,2.5c0.01,1.65,2.27,1.061,1.66,3.33c2.85,0.62,1.06-3.38,4.16-2.5c-2.15,2.141,0.7,3.53,2.5,4.16
			c0.17,2.6-0.56,6.11,0.83,7.49c1.5,0.109,1.76-1.021,3.33-0.83c0.23-1.9-0.2-3.13-1.66-3.33c3.49-1.64,4.73,0.89,4.99,4.99
			C150.29,517.16,151.669,516.6,152.379,515.37z M147.39,524.52c-2.56-2.59-6.81,1.101-9.16-0.829
			C137.81,527.24,146.35,526.74,147.39,524.52z M127.419,514.54c2.38,0.16,4.54,0.1,4.16-2.5c-1.85-0.36-4.52-1.91-5,0.83
			C127.229,513.05,127.549,513.57,127.419,514.54z M130.739,532.01c0.4-3.439-3.89-2.21-5.82-3.33c0.19,1.58-0.94,1.84-0.83,3.33
			C127.399,531.4,127.43,531.4,130.739,532.01z M127.419,522.03c-0.95-2.62,0.24-2.2-0.84-4.17c-0.83,0-1.66,0-2.49,0
			C123.739,520.71,124.339,522.61,127.419,522.03z M124.919,525.35c1.31-3.25-2.16-1.72-2.5-3.319c0.51-0.05,0.99-0.13,0.83-0.84
			c-0.83,0-1.66,0-2.49,0C120.779,523.95,122.16,525.34,124.919,525.35z"/>
		<path fill="#00ADEE" d="M149.879,506.21c2.34-3.08,1.61,3.88,1.67,5.83c-2.42-0.63-4.13-1.98-5.83-3.33
			C147.35,507.57,152.089,510.74,149.879,506.21z"/>
		<path fill="#00ADEE" d="M149.879,429.65c0.22,4.1,0.33,8.09-4.16,7.489c0.39-2.939,1.85-4.8,1.67-8.319
			C148.06,429.26,148.739,429.69,149.879,429.65z"/>
		<path fill="#222222" d="M138.229,523.69c2.35,1.93,6.6-1.761,9.16,0.829C146.35,526.74,137.81,527.24,138.229,523.69z"/>
		<path fill="#222222" d="M139.069,350.6c-1.99,2.73-4.34-1.14-3.33-4.159C139.229,345.45,137.219,349.94,139.069,350.6z"/>
		<path fill="#222222" d="M131.58,512.04c0.38,2.6-1.78,2.66-4.16,2.5c0.13-0.97-0.19-1.49-0.84-1.67
			C127.06,510.13,129.729,511.68,131.58,512.04z"/>
		<path fill="#222222" d="M124.919,528.68c1.93,1.12,6.22-0.109,5.82,3.33c-3.31-0.609-3.34-0.609-6.65,0
			C123.979,530.52,125.109,530.26,124.919,528.68z"/>
		<path fill="#222222" d="M126.58,517.86c1.08,1.97-0.11,1.55,0.84,4.17c-3.08,0.58-3.68-1.32-3.33-4.17
			C124.919,517.86,125.75,517.86,126.58,517.86z"/>
		<path fill="#222222" d="M122.419,522.03c0.34,1.6,3.81,0.069,2.5,3.319c-2.76-0.01-4.14-1.399-4.16-4.159c0.83,0,1.66,0,2.49,0
			C123.41,521.9,122.93,521.98,122.419,522.03z"/>
		<path fill="#00ADEE" d="M124.089,542c0.32,2.91-5.63,4.73-5,0.83C121.64,543.43,122.129,541.98,124.089,542z"/>
		<path fill="#00ADEE" d="M123.25,382.22c-7.79-3.31-12.53-9.66-20.8-12.479C111.669,365.03,118.87,376.56,123.25,382.22z"/>
		<path fill="#00ADEE" d="M111.6,515.37c-3.66,1.17-2.25-2.74-2.49-5C110.439,511.54,111.229,513.24,111.6,515.37z"/>
		<path fill="#00ADEE" d="M94.959,474.59c1.96,2.92-0.4,8.5-4.16,6.66C90.819,477.66,94.95,478.18,94.959,474.59z"/>
		<path fill="#00ADEE" d="M75.819,457.95c4.66,1.84,7.14-1.141,12.48-0.83c-0.28,2.77-2.41,3.689-1.66,7.49
			c-4.89,0.659-6.28,4.81-11.65,4.989c1.45,8.381-10.49,3.381-9.16,11.65c-3.65,0.88-7.72,0.57-6.65,4.16
			c-6.82-1.69-12.41,4.7-16.65,8.32c0.82-2.24,1.84-4.271,2.5-6.66c1.49-0.101,1.76,1.02,3.33,0.84c-3-2.9-0.28-5.86,1.66-8.33
			c2.62-0.95,2.03,1.31,3.33,1.67c1.49-1.47-0.33-5.58,5-6.66c0.34-2-1.52-1.81-0.84-4.16c4.5,3.65,12.55-2.01,13.32-7.489
			C74.029,465.54,76.819,462.16,75.819,457.95z"/>
		<path fill="#222222" d="M60.009,436.31c2.23,1.75-0.72,5.33-3.33,4.99c0.07-1.18,0.14-2.35-0.83-2.49
			c-1.24,0.36,0.33,1.061,0,2.49c-1.95-1.649-5.61-1.6-5.83-4.99C54.939,435.95,57.029,439.03,60.009,436.31z"/>
		<path fill="#222222" d="M54.18,430.49c3.11,0.68,0.37,5.279-2.49,4.99C50.83,432.13,52.979,431.78,54.18,430.49z"/>
		<path d="M18.399,600.25c7.35,0,14.72,0,22.11,0c-8.36,0.51-16.73,0.9-23.81,0.04C17.279,600.26,17.839,600.25,18.399,600.25z"/>
		<path fill="#00ADEE" d="M27.549,405.52c0,1.391,0,2.771,0,4.16c-2.95-5.59-3.52,0.67-6.65,1.67c-1.62-4.1-0.97-10.93,0.83-14.149
			c1.34-0.24,1.43,0.79,2.5,0.83c0,2.22,0,4.439,0,6.66C24.459,406.44,26.45,403.48,27.549,405.52z"/>
		<path fill="#00ADEE" d="M26.719,416.34c2.51,0.03,2.42,5.91-0.83,4.99C26.45,418.11,25.89,418.37,26.719,416.34z"/>
		<path fill="#00ADEE" d="M20.06,368.9c1.73-1.94,3.89,2.729,7.49,1.67c-1.66,1.779-4.66,1.12-3.32,7.489
			C20.189,377.65,21.649,371.76,20.06,368.9z"/>
		<path fill="#00ADEE" d="M24.229,284.02c-1.43,1.91-6.36,0.31-9.16,0.83c1.65,1.41,5.2,0.91,7.49,1.67
			c-6.47,2.58-14.14-0.83-21.64,0c0-1.67,0-3.33,0-4.99C7.239,283.81,18.989,280.66,24.229,284.02z"/>
		<path fill="#222222" d="M19.229,1.08c0.66,3.21-3.98,3.21-3.33,0C17.009,1.08,18.12,1.08,19.229,1.08z"/>
		<path fill="#00ADEE" d="M18.399,393.04c1.15,3.94,0.3,13.04-4.16,14.14c1.81-1.729-0.42-2.37,0-4.989
			c-5.15-1.54-3.56,3.659-4.99,5.829c-3.95,0.061-1.88-5.89-5.83-5.829c0.31-4.131,5.83-3.04,4.99-8.32
			C12.75,393.93,15.18,395.18,18.399,393.04z"/>
		<path fill="#222222" d="M19.229,274.04c-8.58-1.1-10.39,4.58-18.31,4.16c0-1.11,0-2.22,0-3.33c2.52-0.26,6.48,0.92,6.66-1.67
			c-3.13-0.64-3.98,1.02-6.66,0.84c0-1.39,0-2.78,0-4.16c0.65,0.18,1.65,0.02,1.67,0.83c3.46-1.12,4.12-2.56,8.32,1.66
			c0.89-2.62-5.11-5.11-0.83-5.82C10.5,268.92,14.259,271.52,19.229,274.04z"/>
		<path fill="#00ADEE" d="M15.899,371.4c3.58,0.17,0.99,6.55-1.66,5.83C14.109,374.6,14.209,372.2,15.899,371.4z"/>
		<path fill="#00ADEE" d="M11.739,380.55c1.73-0.49,5.47,1.03,5.83-0.83c-0.81,5.84-10.23,2.73-13.32-1.66
			c1.52-2.56,4.67,1.671,5.83-0.829C11.62,377.35,10.589,380.04,11.739,380.55z"/>
		<path fill="#00ADEE" d="M15.899,317.31c1.15,0.41,2.02,7.5-0.83,6.66C14.43,320.83,16.089,319.99,15.899,317.31z"/>
		<path fill="#222222" d="M15.069,0.25c0.12,5.39-4.44,6.1-6.66,9.15c0.96,2.72,7.86,2.76,5,6.66c-1.39-3.05-5.6-3.28-8.32-4.99
			c0.71-2.65-0.73-3.16-1.67-4.16c0.98-3.18,2.81-5.52,7.49-5c-0.43,1.24-1.23,2.1-1.66,3.33c2.05-0.99,3.25-2.85,4.16-4.99
			C13.959,0.25,14.52,0.25,15.069,0.25z"/>
		<path fill="#00ADEE" d="M11.739,599.42c1.56,0.38,3.22,0.66,4.96,0.87c-8.81,0.34-19.21,2.74-15.78-10.03
			C5.919,594.83,6.089,598.06,11.739,599.42z"/>
		<path fill="#222222" d="M12.58,18.56c0.26,1.93-0.14,3.19-0.84,4.16c-1.82-0.12-1.78-2.1-1.66-4.16
			C10.91,18.56,11.739,18.56,12.58,18.56z"/>
		<path fill="#00ADEE" d="M14.239,299c-1.73,1.68-8.33,1.16-8.32-1.66C10.819,297.29,10.14,297.95,14.239,299z"/>
		<path fill="#00ADEE" d="M10.91,372.23c0.71,3.149-3.72,2.949-4.99,1.67C6.68,372.44,8.52,372.06,10.91,372.23z"/>
		<path fill="#222222" d="M8.41,19.39c1.07,1.09,1.07,3.07,0,4.16c-0.97-1.25-2.4-2.03-2.49-4.16C6.75,19.39,7.58,19.39,8.41,19.39z
			"/>
		<path fill="#222222" d="M2.589,8.57c1.37,3.34,6.13,3.3,5.82,8.32C5.62,15.27,0.689,12.21,2.589,8.57z"/>
		<path fill="#222222" d="M3.419,33.54c1.92,1.52,4.84,5.17,4.16,6.65c-0.81-0.02-0.64-1.01-0.83-1.66
			c-2.4,2.47-1.44-2.08-4.16-1.66C3.239,36.13,3.479,34.99,3.419,33.54z"/>
		<path fill="#00ADEE" d="M0.919,274.04c2.68,0.18,3.53-1.48,6.66-0.84c-0.18,2.59-4.14,1.41-6.66,1.67
			C0.919,274.59,0.919,274.31,0.919,274.04z"/>
		<path fill="#222222" d="M5.919,22.72c0.25,1.63-1.13,1.65-1.67,2.5c-1.95-0.27-1.86-2.58-3.33-3.33c0-1.67,0-3.33,0-5
			c1.61-0.33,0.66-3.22,3.33-2.49c1.79,1.77,0.31,4.53-1.66,4.99C2.589,21.6,4.899,21.51,5.919,22.72z"/>
		<path fill="#00ADEE" d="M0.919,379.72c1.28,1.16,2.37,4.311,0.84,5.83c-0.28,0-0.56,0-0.84,0
			C0.919,383.61,0.919,381.67,0.919,379.72z"/>
		<path fill="#00ADEE" d="M0.919,393.04c1.38,1.43,1.38,8.55,0,9.979C0.919,399.7,0.919,396.37,0.919,393.04z"/>
	</g>
	<g>
	</g>
</g>
</svg>
